<mxfile host="app.diagrams.net" agent="Mozilla/5.0 (Windows NT 10.0; Win64; x64; rv:143.0) Gecko/20100101 Firefox/143.0" version="28.2.3">
  <diagram name="Страница — 1" id="yLtqsdLyZenQX1GJ1IhD">
    <mxGraphModel dx="3762" dy="1580" grid="0" gridSize="10" guides="1" tooltips="1" connect="1" arrows="1" fold="1" page="0" pageScale="1" pageWidth="827" pageHeight="1169" math="0" shadow="0">
      <root>
        <mxCell id="0" />
        <mxCell id="1" parent="0" />
        <mxCell id="vxo2_MmbldthmeWOhvXQ-1" value="" style="rounded=0;whiteSpace=wrap;html=1;" parent="1" vertex="1">
          <mxGeometry x="78" y="-99" width="270" height="67" as="geometry" />
        </mxCell>
        <mxCell id="vxo2_MmbldthmeWOhvXQ-5" value="Обслуживание клиента" style="text;strokeColor=none;fillColor=none;html=1;align=center;verticalAlign=middle;whiteSpace=wrap;rounded=0;fontSize=26;strokeWidth=1;" parent="1" vertex="1">
          <mxGeometry x="79" y="-98" width="269" height="65" as="geometry" />
        </mxCell>
        <mxCell id="vxo2_MmbldthmeWOhvXQ-38" value="" style="rounded=0;whiteSpace=wrap;html=1;" parent="1" vertex="1">
          <mxGeometry x="-406" y="59" width="270" height="67" as="geometry" />
        </mxCell>
        <mxCell id="vxo2_MmbldthmeWOhvXQ-39" value="&lt;font style=&quot;font-size: 24px;&quot;&gt;Приём заявки&lt;/font&gt;" style="text;html=1;align=center;verticalAlign=middle;whiteSpace=wrap;rounded=0;fontSize=20;" parent="1" vertex="1">
          <mxGeometry x="-393.5" y="59" width="245" height="65" as="geometry" />
        </mxCell>
        <mxCell id="T-Rxa87JrUxMpe1Wu-bd-1" value="" style="rounded=0;whiteSpace=wrap;html=1;" parent="1" vertex="1">
          <mxGeometry x="-97.5" y="59" width="270" height="67" as="geometry" />
        </mxCell>
        <mxCell id="T-Rxa87JrUxMpe1Wu-bd-2" value="&lt;div&gt;&lt;font style=&quot;font-size: 24px;&quot;&gt;Выполнение услуги&lt;/font&gt;&lt;/div&gt;" style="text;html=1;align=center;verticalAlign=middle;whiteSpace=wrap;rounded=0;fontSize=20;" parent="1" vertex="1">
          <mxGeometry x="-85" y="55" width="245" height="65" as="geometry" />
        </mxCell>
        <mxCell id="T-Rxa87JrUxMpe1Wu-bd-7" value="" style="rounded=0;whiteSpace=wrap;html=1;" parent="1" vertex="1">
          <mxGeometry x="233" y="59" width="270" height="68" as="geometry" />
        </mxCell>
        <mxCell id="T-Rxa87JrUxMpe1Wu-bd-12" value="&lt;div&gt;&lt;font style=&quot;font-size: 24px;&quot;&gt;Оплата услуги&lt;/font&gt;&lt;/div&gt;" style="text;html=1;align=center;verticalAlign=middle;whiteSpace=wrap;rounded=0;fontSize=20;" parent="1" vertex="1">
          <mxGeometry x="245.5" y="67" width="245" height="53" as="geometry" />
        </mxCell>
        <mxCell id="T-Rxa87JrUxMpe1Wu-bd-14" value="" style="rounded=0;whiteSpace=wrap;html=1;" parent="1" vertex="1">
          <mxGeometry x="539" y="61" width="270" height="67" as="geometry" />
        </mxCell>
        <mxCell id="T-Rxa87JrUxMpe1Wu-bd-15" value="&lt;font style=&quot;font-size: 24px;&quot;&gt;Отчётность&lt;/font&gt;" style="text;html=1;align=center;verticalAlign=middle;whiteSpace=wrap;rounded=0;fontSize=20;" parent="1" vertex="1">
          <mxGeometry x="551.5" y="62" width="245" height="65" as="geometry" />
        </mxCell>
        <mxCell id="T-Rxa87JrUxMpe1Wu-bd-19" value="" style="rounded=0;whiteSpace=wrap;html=1;" parent="1" vertex="1">
          <mxGeometry x="-908" y="157" width="270" height="67" as="geometry" />
        </mxCell>
        <mxCell id="T-Rxa87JrUxMpe1Wu-bd-28" value="" style="rounded=0;whiteSpace=wrap;html=1;" parent="1" vertex="1">
          <mxGeometry x="-630" y="156" width="270" height="67" as="geometry" />
        </mxCell>
        <mxCell id="T-Rxa87JrUxMpe1Wu-bd-29" value="" style="rounded=0;whiteSpace=wrap;html=1;" parent="1" vertex="1">
          <mxGeometry x="-69" y="157" width="270" height="67" as="geometry" />
        </mxCell>
        <mxCell id="T-Rxa87JrUxMpe1Wu-bd-30" value="" style="rounded=0;whiteSpace=wrap;html=1;" parent="1" vertex="1">
          <mxGeometry x="-349" y="157" width="270" height="67" as="geometry" />
        </mxCell>
        <mxCell id="T-Rxa87JrUxMpe1Wu-bd-35" value="" style="rounded=0;whiteSpace=wrap;html=1;" parent="1" vertex="1">
          <mxGeometry x="220.5" y="156" width="270" height="67" as="geometry" />
        </mxCell>
        <mxCell id="T-Rxa87JrUxMpe1Wu-bd-36" value="" style="rounded=0;whiteSpace=wrap;html=1;" parent="1" vertex="1">
          <mxGeometry x="503" y="157" width="270" height="67" as="geometry" />
        </mxCell>
        <mxCell id="T-Rxa87JrUxMpe1Wu-bd-37" value="" style="rounded=0;whiteSpace=wrap;html=1;" parent="1" vertex="1">
          <mxGeometry x="834" y="396" width="270" height="67" as="geometry" />
        </mxCell>
        <mxCell id="T-Rxa87JrUxMpe1Wu-bd-38" value="Расчёт стоимости" style="text;html=1;align=center;verticalAlign=middle;whiteSpace=wrap;rounded=0;fontSize=20;" parent="1" vertex="1">
          <mxGeometry x="233" y="155" width="245" height="65" as="geometry" />
        </mxCell>
        <mxCell id="T-Rxa87JrUxMpe1Wu-bd-39" value="A3.2 Приём платежа" style="text;html=1;align=center;verticalAlign=middle;whiteSpace=wrap;rounded=0;fontSize=20;" parent="1" vertex="1">
          <mxGeometry x="334" y="591" width="245" height="65" as="geometry" />
        </mxCell>
        <mxCell id="T-Rxa87JrUxMpe1Wu-bd-40" value="A3.3 Фиксация операции в кассовом журнале" style="text;html=1;align=center;verticalAlign=middle;whiteSpace=wrap;rounded=0;fontSize=20;" parent="1" vertex="1">
          <mxGeometry x="846.5" y="396" width="245" height="65" as="geometry" />
        </mxCell>
        <mxCell id="T-Rxa87JrUxMpe1Wu-bd-41" value="" style="rounded=0;whiteSpace=wrap;html=1;" parent="1" vertex="1">
          <mxGeometry x="796.5" y="157" width="270" height="67" as="geometry" />
        </mxCell>
        <mxCell id="T-Rxa87JrUxMpe1Wu-bd-42" value="" style="rounded=0;whiteSpace=wrap;html=1;" parent="1" vertex="1">
          <mxGeometry x="1414" y="395" width="270" height="67" as="geometry" />
        </mxCell>
        <mxCell id="T-Rxa87JrUxMpe1Wu-bd-43" value="" style="rounded=0;whiteSpace=wrap;html=1;" parent="1" vertex="1">
          <mxGeometry x="1705" y="396" width="269" height="78" as="geometry" />
        </mxCell>
        <mxCell id="T-Rxa87JrUxMpe1Wu-bd-44" value="Кассовый журнал" style="text;html=1;align=center;verticalAlign=middle;whiteSpace=wrap;rounded=0;fontSize=20;" parent="1" vertex="1">
          <mxGeometry x="809" y="155" width="245" height="65" as="geometry" />
        </mxCell>
        <mxCell id="T-Rxa87JrUxMpe1Wu-bd-45" value="A4.1 Сбор данных по всем операциям" style="text;html=1;align=center;verticalAlign=middle;whiteSpace=wrap;rounded=0;fontSize=20;" parent="1" vertex="1">
          <mxGeometry x="1426.5" y="394" width="245" height="65" as="geometry" />
        </mxCell>
        <mxCell id="T-Rxa87JrUxMpe1Wu-bd-46" value="A4,2 Подсчёт выручки и количества оказанных услуг" style="text;html=1;align=center;verticalAlign=middle;whiteSpace=wrap;rounded=0;fontSize=20;" parent="1" vertex="1">
          <mxGeometry x="1716.5" y="396" width="245" height="65" as="geometry" />
        </mxCell>
        <mxCell id="T-Rxa87JrUxMpe1Wu-bd-47" value="" style="rounded=0;whiteSpace=wrap;html=1;" parent="1" vertex="1">
          <mxGeometry x="1700" y="184" width="270" height="67" as="geometry" />
        </mxCell>
        <mxCell id="T-Rxa87JrUxMpe1Wu-bd-48" value="A4.3 Формирование итогового отчёта" style="text;html=1;align=center;verticalAlign=middle;whiteSpace=wrap;rounded=0;fontSize=20;" parent="1" vertex="1">
          <mxGeometry x="1704.5" y="185" width="245" height="65" as="geometry" />
        </mxCell>
        <mxCell id="9bJHdyzDj5cxUiMBhojS-13" value="" style="endArrow=none;html=1;rounded=0;elbow=vertical;entryX=0;entryY=0.5;entryDx=0;entryDy=0;exitX=0.5;exitY=0;exitDx=0;exitDy=0;edgeStyle=elbowEdgeStyle;" edge="1" parent="1" source="vxo2_MmbldthmeWOhvXQ-39" target="vxo2_MmbldthmeWOhvXQ-1">
          <mxGeometry width="50" height="50" relative="1" as="geometry">
            <mxPoint x="-171" y="-7" as="sourcePoint" />
            <mxPoint x="-121" y="-57" as="targetPoint" />
          </mxGeometry>
        </mxCell>
        <mxCell id="9bJHdyzDj5cxUiMBhojS-14" value="" style="endArrow=none;html=1;rounded=0;elbow=vertical;entryX=0.5;entryY=0;entryDx=0;entryDy=0;exitX=1;exitY=0.5;exitDx=0;exitDy=0;edgeStyle=elbowEdgeStyle;" edge="1" parent="1" source="vxo2_MmbldthmeWOhvXQ-5" target="T-Rxa87JrUxMpe1Wu-bd-15">
          <mxGeometry width="50" height="50" relative="1" as="geometry">
            <mxPoint x="543" y="80" as="sourcePoint" />
            <mxPoint x="896" y="-46" as="targetPoint" />
          </mxGeometry>
        </mxCell>
        <mxCell id="9bJHdyzDj5cxUiMBhojS-18" value="" style="endArrow=none;html=1;rounded=0;exitX=0.944;exitY=0.056;exitDx=0;exitDy=0;exitPerimeter=0;entryX=0.25;entryY=1;entryDx=0;entryDy=0;" edge="1" parent="1" source="T-Rxa87JrUxMpe1Wu-bd-2" target="vxo2_MmbldthmeWOhvXQ-5">
          <mxGeometry width="50" height="50" relative="1" as="geometry">
            <mxPoint x="136" y="37" as="sourcePoint" />
            <mxPoint x="150" y="-16" as="targetPoint" />
          </mxGeometry>
        </mxCell>
        <mxCell id="9bJHdyzDj5cxUiMBhojS-19" value="" style="endArrow=none;html=1;rounded=0;exitX=0.048;exitY=0;exitDx=0;exitDy=0;exitPerimeter=0;entryX=0.622;entryY=1;entryDx=0;entryDy=0;entryPerimeter=0;" edge="1" parent="1" source="T-Rxa87JrUxMpe1Wu-bd-7" target="vxo2_MmbldthmeWOhvXQ-1">
          <mxGeometry width="50" height="50" relative="1" as="geometry">
            <mxPoint x="245" y="58" as="sourcePoint" />
            <mxPoint x="246" y="-32" as="targetPoint" />
          </mxGeometry>
        </mxCell>
        <mxCell id="9bJHdyzDj5cxUiMBhojS-20" value="&lt;font style=&quot;font-size: 24px;&quot;&gt;Регистрация&lt;/font&gt;" style="text;html=1;align=center;verticalAlign=middle;whiteSpace=wrap;rounded=0;fontSize=20;" vertex="1" parent="1">
          <mxGeometry x="-895.5" y="158" width="245" height="65" as="geometry" />
        </mxCell>
        <mxCell id="9bJHdyzDj5cxUiMBhojS-21" value="" style="endArrow=none;html=1;rounded=0;entryX=0;entryY=0.5;entryDx=0;entryDy=0;exitX=0.5;exitY=0;exitDx=0;exitDy=0;edgeStyle=elbowEdgeStyle;elbow=vertical;" edge="1" parent="1" source="T-Rxa87JrUxMpe1Wu-bd-19" target="vxo2_MmbldthmeWOhvXQ-38">
          <mxGeometry width="50" height="50" relative="1" as="geometry">
            <mxPoint x="-542" y="99" as="sourcePoint" />
            <mxPoint x="-492" y="49" as="targetPoint" />
          </mxGeometry>
        </mxCell>
        <mxCell id="9bJHdyzDj5cxUiMBhojS-24" value="" style="endArrow=none;html=1;rounded=0;exitX=0.5;exitY=0;exitDx=0;exitDy=0;entryX=0.25;entryY=1;entryDx=0;entryDy=0;" edge="1" parent="1" source="T-Rxa87JrUxMpe1Wu-bd-28" target="vxo2_MmbldthmeWOhvXQ-38">
          <mxGeometry width="50" height="50" relative="1" as="geometry">
            <mxPoint x="-272" y="159" as="sourcePoint" />
            <mxPoint x="-274" y="128" as="targetPoint" />
          </mxGeometry>
        </mxCell>
        <mxCell id="9bJHdyzDj5cxUiMBhojS-27" value="Запись" style="text;html=1;align=center;verticalAlign=middle;whiteSpace=wrap;rounded=0;fontSize=20;" vertex="1" parent="1">
          <mxGeometry x="-336.5" y="157" width="245" height="65" as="geometry" />
        </mxCell>
        <mxCell id="9bJHdyzDj5cxUiMBhojS-28" value="" style="endArrow=none;html=1;rounded=0;exitX=1;exitY=0.5;exitDx=0;exitDy=0;entryX=0.5;entryY=0;entryDx=0;entryDy=0;edgeStyle=elbowEdgeStyle;elbow=vertical;" edge="1" parent="1" source="T-Rxa87JrUxMpe1Wu-bd-14" target="T-Rxa87JrUxMpe1Wu-bd-41">
          <mxGeometry width="50" height="50" relative="1" as="geometry">
            <mxPoint x="946" y="102" as="sourcePoint" />
            <mxPoint x="996" y="52" as="targetPoint" />
          </mxGeometry>
        </mxCell>
        <mxCell id="9bJHdyzDj5cxUiMBhojS-29" value="" style="endArrow=none;html=1;rounded=0;exitX=0.5;exitY=0;exitDx=0;exitDy=0;entryX=0.75;entryY=1;entryDx=0;entryDy=0;" edge="1" parent="1" source="T-Rxa87JrUxMpe1Wu-bd-30" target="vxo2_MmbldthmeWOhvXQ-38">
          <mxGeometry width="50" height="50" relative="1" as="geometry">
            <mxPoint x="-76" y="305" as="sourcePoint" />
            <mxPoint x="-210" y="136" as="targetPoint" />
          </mxGeometry>
        </mxCell>
        <mxCell id="9bJHdyzDj5cxUiMBhojS-30" value="Выбор причёски" style="text;html=1;align=center;verticalAlign=middle;whiteSpace=wrap;rounded=0;fontSize=20;" vertex="1" parent="1">
          <mxGeometry x="-617.5" y="158" width="245" height="65" as="geometry" />
        </mxCell>
        <mxCell id="9bJHdyzDj5cxUiMBhojS-31" value="" style="endArrow=none;html=1;rounded=0;entryX=0.5;entryY=1;entryDx=0;entryDy=0;exitX=0.5;exitY=0;exitDx=0;exitDy=0;" edge="1" parent="1" source="T-Rxa87JrUxMpe1Wu-bd-29" target="T-Rxa87JrUxMpe1Wu-bd-1">
          <mxGeometry width="50" height="50" relative="1" as="geometry">
            <mxPoint x="123" y="313" as="sourcePoint" />
            <mxPoint x="173" y="263" as="targetPoint" />
          </mxGeometry>
        </mxCell>
        <mxCell id="9bJHdyzDj5cxUiMBhojS-32" value="Выполнение" style="text;html=1;align=center;verticalAlign=middle;whiteSpace=wrap;rounded=0;fontSize=20;" vertex="1" parent="1">
          <mxGeometry x="-56.5" y="158" width="245" height="65" as="geometry" />
        </mxCell>
        <mxCell id="9bJHdyzDj5cxUiMBhojS-33" value="" style="endArrow=none;html=1;rounded=0;entryX=0.25;entryY=1;entryDx=0;entryDy=0;exitX=0.5;exitY=0;exitDx=0;exitDy=0;" edge="1" parent="1" source="T-Rxa87JrUxMpe1Wu-bd-35" target="T-Rxa87JrUxMpe1Wu-bd-7">
          <mxGeometry width="50" height="50" relative="1" as="geometry">
            <mxPoint x="351" y="324" as="sourcePoint" />
            <mxPoint x="332" y="251" as="targetPoint" />
          </mxGeometry>
        </mxCell>
        <mxCell id="9bJHdyzDj5cxUiMBhojS-34" value="" style="endArrow=none;html=1;rounded=0;entryX=0.75;entryY=1;entryDx=0;entryDy=0;exitX=0.5;exitY=0;exitDx=0;exitDy=0;" edge="1" parent="1" source="T-Rxa87JrUxMpe1Wu-bd-36" target="T-Rxa87JrUxMpe1Wu-bd-7">
          <mxGeometry width="50" height="50" relative="1" as="geometry">
            <mxPoint x="605" y="309" as="sourcePoint" />
            <mxPoint x="550" y="280" as="targetPoint" />
          </mxGeometry>
        </mxCell>
        <mxCell id="9bJHdyzDj5cxUiMBhojS-35" value="Выдача чека" style="text;html=1;align=center;verticalAlign=middle;whiteSpace=wrap;rounded=0;fontSize=20;" vertex="1" parent="1">
          <mxGeometry x="510" y="159" width="245" height="65" as="geometry" />
        </mxCell>
      </root>
    </mxGraphModel>
  </diagram>
</mxfile>
